Coordinates
version=1
nRows=7
nColumns=40
inDegrees=yes

Units are S.I. units (second, meters, Newtons, ...)
If the header above contains a line with 'inDegrees', this indicates whether rotational values are in degrees (yes) or radians (no).

endheader
time	pelvis_tilt	pelvis_list	pelvis_rotation	pelvis_tx	pelvis_ty	pelvis_tz	hip_flexion_r	hip_adduction_r	hip_rotation_r	knee_angle_r	knee_angle_r_beta	ankle_angle_r	subtalar_angle_r	mtp_angle_r	hip_flexion_l	hip_adduction_l	hip_rotation_l	knee_angle_l	knee_angle_l_beta	ankle_angle_l	subtalar_angle_l	mtp_angle_l	lumbar_extension	lumbar_bending	lumbar_rotation	arm_flex_r	arm_add_r	arm_rot_r	elbow_flex_r	pro_sup_r	wrist_flex_r	wrist_dev_r	arm_flex_l	arm_add_l	arm_rot_l	elbow_flex_l	pro_sup_l	wrist_flex_l	wrist_dev_l
      3.20000000	     16.52005711	     -9.06072902	     -6.70874376	     -0.33701790	      0.93697648	     -1.03359866	     30.37845463	      5.13864198	     -7.12708437	      8.29118052	      0.14470840	      1.06344675	      0.00000000	      0.00000000	     15.53613927	    -12.27392010	    -14.36358197	     64.43810793	      1.12465715	     20.35928774	      0.00000000	      0.00000000	    -25.55980090	      2.31005934	     10.81600579	     89.83003373	    -18.29018183	     40.35590530	     29.63300361	     84.79146440	      0.00000000	      0.00000000	     89.90529230	    -20.16424705	     48.75876549	     40.90743118	     86.28904324	      0.00000000	      0.00000000
      3.20500000	     16.46685622	     -9.02944187	     -6.65971120	     -0.33726331	      0.93606288	     -1.03361082	     30.51423899	      5.10050176	     -7.18034030	      8.26792301	      0.14430248	      1.01950473	      0.00000000	      0.00000000	     15.73168407	    -12.22303194	    -14.24782586	     64.61877604	      1.12781040	     20.45407233	      0.00000000	      0.00000000	    -25.56533721	      2.25228106	     10.83119251	     89.83254078	    -18.39609756	     40.22536196	     29.72291781	     84.80846889	      0.00000000	      0.00000000	     89.90585301	    -20.06181690	     48.58070414	     40.92107443	     86.29140026	      0.00000000	      0.00000000
      3.21000000	     16.39904329	     -9.02906929	     -6.58842748	     -0.33745097	      0.93508750	     -1.03370922	     30.64467781	      5.07788654	     -7.29519999	      8.20744490	      0.14324694	      1.17749208	      0.00000000	      0.00000000	     15.97397649	    -12.20360180	    -14.09717875	     64.85021734	      1.13184981	     20.56829778	      0.00000000	      0.00000000	    -25.54541952	      2.26292621	     10.81456403	     89.83416374	    -18.39807793	     39.91195829	     29.69518293	     84.69298514	      0.00000000	      0.00000000	     89.90661758	    -19.98244860	     48.44394296	     40.91657844	     86.35890495	      0.00000000	      0.00000000
      3.21500000	     16.34488748	     -9.05448304	     -6.55383839	     -0.33769072	      0.93416346	     -1.03368604	     30.76582252	      5.10537968	     -7.33206938	      8.15689221	      0.14236463	      1.15111865	      0.00000000	      0.00000000	     16.18129923	    -12.22459103	    -13.96046818	     65.06765046	      1.13564474	     20.63581035	      0.00000000	      0.00000000	    -25.55638985	      2.25854793	     10.86585095	     89.83702825	    -18.48242384	     39.70777636	     29.75974610	     84.95010130	      0.00000000	      0.00000000	     89.90721727	    -19.86211250	     48.26814001	     40.92116117	     86.10159433	      0.00000000	      0.00000000
      3.22000000	     16.33346227	     -9.04024774	     -6.58314812	     -0.33786961	      0.93338252	     -1.03355543	     30.81550464	      5.13326950	     -7.16045191	      8.06535654	      0.14076703	      1.08906960	      0.00000000	      0.00000000	     16.28770144	    -12.21608323	    -13.92804004	     65.23224413	      1.13851744	     20.73437467	      0.00000000	      0.00000000	    -25.59486985	      2.20584861	     10.92942311	     89.83850639	    -18.44211876	     39.40445336	     29.68161196	     84.82586642	      0.00000000	      0.00000000	     89.90807070	    -19.84332374	     48.21230192	     40.97813053	     86.24023706	      0.00000000	      0.00000000
      3.22500000	     16.33361607	     -9.05535973	     -6.55196437	     -0.33800988	      0.93257208	     -1.03359323	     30.88393310	      5.15325620	     -7.41786435	      8.03351311	      0.14021125	      1.19504072	      0.00000000	      0.00000000	     16.41304878	    -12.21378644	    -13.83318124	     65.41886523	      1.14177459	     20.82201318	      0.00000000	      0.00000000	    -25.65068966	      2.19260316	     11.00572723	     89.84108588	    -18.57574787	     39.34478001	     29.78301369	     84.60223562	      0.00000000	      0.00000000	     89.90855633	    -19.71202651	     48.00685549	     40.97615125	     86.29564269	      0.00000000	      0.00000000
      3.23000000	     16.30644789	     -9.01235229	     -6.55277220	     -0.33817178	      0.93163928	     -1.03358651	     30.99029584	      5.13220285	     -7.27806632	      8.02980556	      0.14014655	      1.30144901	      0.00000000	      0.00000000	     16.56972694	    -12.13947309	    -13.72857945	     65.61314050	      1.14516533	     20.92399403	      0.00000000	      0.00000000	    -25.66392871	      2.13170340	     11.04022797	     89.84339733	    -18.56710690	     39.02857448	     29.77650700	     84.86915134	      0.00000000	      0.00000000	     89.90951982	    -19.64265670	     47.92120083	     40.94364821	     86.17730573	      0.00000000	      0.00000000
